HIERARCHY
ROOT Hips
{
  OFFSET 0 95.1654 0
  CHANNELS 6 Xposition Yposition Zposition Zrotation Xrotation Yrotation
  JOINT Spine
  {
    OFFSET 0 4.73261 7.09891
    CHANNELS 3 Zrotation Xrotation Yrotation
    JOINT Spine1
    {
      OFFSET 0 0 9.46521
      CHANNELS 3 Zrotation Xrotation Yrotation
      JOINT Spine2
      {
        OFFSET 0 0 9.46522
        CHANNELS 3 Zrotation Xrotation Yrotation
        JOINT Spine3
        {
          OFFSET 0 0 9.4652
          CHANNELS 3 Zrotation Xrotation Yrotation
          JOINT Neck
          {
            OFFSET 0 -3.54944 24.8465
            CHANNELS 3 Zrotation Xrotation Yrotation
            JOINT Head
            {
              OFFSET 0 0 13.0147
              CHANNELS 3 Zrotation Xrotation Yrotation
              End Site
              {
                OFFSET 0 0 15.3218
              }
            }
          }
          JOINT RightShoulder
          {
            OFFSET -3.19949 -5.33249 17.2772
            CHANNELS 3 Zrotation Xrotation Yrotation
            JOINT RightArm
            {
              OFFSET 15.8908 0 -1.14715e-05
              CHANNELS 3 Zrotation Xrotation Yrotation
              JOINT RightForeArm
              {
                OFFSET 29.5436 -1.3269e-05 3.60762e-05
                CHANNELS 3 Zrotation Xrotation Yrotation
                JOINT RightHand
                {
                  OFFSET 23.2652 0 0
                  CHANNELS 3 Zrotation Xrotation Yrotation
                  JOINT RightHandEnd
                  {
                    OFFSET 6.96115 0 0
                    CHANNELS 3 Zrotation Xrotation Yrotation
                    End Site
                    {
                      OFFSET 6.96115 0 0
                    }
                  }
                  JOINT RightHandThumb1
                  {
                    OFFSET 2.78447 -4.64077 1.85632
                    CHANNELS 3 Zrotation Xrotation Yrotation
                    JOINT RightHandThumb2
                    {
                      OFFSET 6.96116 0 1.30546e-05
                      CHANNELS 3 Zrotation Xrotation Yrotation
                      End Site
                      {
                        OFFSET 0 0 0
                      }
                    }
                  }
                }
              }
            }
          }
          JOINT LeftShoulder
          {
            OFFSET 3.19949 -5.33248 17.2772
            CHANNELS 3 Zrotation Xrotation Yrotation
            JOINT LeftArm
            {
              OFFSET 15.8908 0 0
              CHANNELS 3 Zrotation Xrotation Yrotation
              JOINT LeftForeArm
              {
                OFFSET 29.5437 -1.15588e-05 -4.19759e-05
                CHANNELS 3 Zrotation Xrotation Yrotation
                JOINT LeftHand
                {
                  OFFSET 23.2652 0 0
                  CHANNELS 3 Zrotation Xrotation Yrotation
                  JOINT LeftHandEnd
                  {
                    OFFSET 6.96115 0 0
                    CHANNELS 3 Zrotation Xrotation Yrotation
                    End Site
                    {
                      OFFSET 6.96115 0 0
                    }
                  }
                  JOINT LeftHandThumb1
                  {
                    OFFSET 2.78446 -4.64077 -1.8563
                    CHANNELS 3 Zrotation Xrotation Yrotation
                    JOINT LeftHandThumb2
                    {
                      OFFSET 6.96116 0 0
                      CHANNELS 3 Zrotation Xrotation Yrotation
                      End Site
                      {
                        OFFSET 0 0 0
                      }
                    }
                  }
                }
              }
            }
          }
        }
      }
    }
  }
  JOINT RightUpLeg
  {
    OFFSET -9.49182 0 -2.77289
    CHANNELS 3 Zrotation Xrotation Yrotation
    JOINT RightLeg
    {
      OFFSET 41.2118 -0.0130352 -0.000556472
      CHANNELS 3 Zrotation Xrotation Yrotation
      JOINT RightFoot
      {
        OFFSET 45.6092 0 0
        CHANNELS 3 Zrotation Xrotation Yrotation
        JOINT RightToeBase
        {
          OFFSET 17.0969 0 0
          CHANNELS 3 Zrotation Xrotation Yrotation
          End Site
          {
            OFFSET 7.67878 0 0
          }
        }
      }
    }
  }
  JOINT LeftUpLeg
  {
    OFFSET 9.49182 0 -2.77289
    CHANNELS 3 Zrotation Xrotation Yrotation
    JOINT LeftLeg
    {
      OFFSET 41.2118 -0.0699684 -0.00851748
      CHANNELS 3 Zrotation Xrotation Yrotation
      JOINT LeftFoot
      {
        OFFSET 45.6091 0 0
        CHANNELS 3 Zrotation Xrotation Yrotation
        JOINT LeftToeBase
        {
          OFFSET 17.0969 0 0
          CHANNELS 3 Zrotation Xrotation Yrotation
          End Site
          {
            OFFSET 7.67878 0 0
          }
        }
      }
    }
  }
}
MOTION
Frames:	11
Frame Time:	0.00833333
-7.45537 91.656 250.792 -101.286 -84.931 -97.3692 -0.296314 -8.33158 -4.34472 -0.0387576 6.9117 -1.3243 2.8592 7.62417 -0.167658 0.492896 -0.287103 0.092058 1.18577 4.38163 -0.634596 -0.397115 -16.3495 0.24197 -1.60917 5.12612 177.739 -31.1162 8.90331 -66.7532 -35.5137 -1.38052e-05 9.39403e-06 1.64473 7.34961 8.89331 5.97141e-09 -90 5.97139e-09 165 10 -180 -3.63989e-08 -2.61197e-06 4.97035e-06 5.03667 3.3937 -0.109323 -32.5501 9.37766 77.5394 -28.9773 5.45669e-06 -2.0385e-06 3.69863 -6.73066 -5.26013 5.97139e-09 90 -5.97139e-09 165 10 -180 -2.48497e-06 6.68527e-07 -6.78461e-06 11.1497 18.7322 79.285 0.0987617 0.0217979 2.65148e-05 -83.8179 -1.15295 12.7574 -21.4188 3.89756e-07 -3.74353e-06 9.01712 -24.5664 86.6716 3.91822 0.00645044 -0.000148349 -69.2486 -5.93809 5.4722 -28.3895 -6.75283e-06 5.83953e-06 
-7.43603 91.4919 251.921 -100.837 -84.913 -96.8712 -0.329647 -8.37078 -4.30012 -0.0412803 6.87766 -1.32862 2.84649 7.65909 -0.193559 0.490158 -0.277059 0.0930579 1.19752 4.34392 -0.67617 -0.391464 -16.394 0.234376 -1.60538 5.10386 177.6 -31.2665 8.85941 -66.6408 -35.5595 1.48766e-06 -1.34241e-05 1.62065 7.31449 8.89796 5.97139e-09 -90 5.97139e-09 165 10 -180 -3.57937e-07 -3.89412e-06 4.87782e-06 5.08615 3.32363 -0.0341324 -32.797 9.55877 77.5999 -28.2834 5.32632e-06 4.84446e-06 3.84748 -6.79311 -4.91608 8.95709e-09 90 -8.95708e-09 165 10 -180 -2.17423e-06 7.51565e-07 -6.04108e-06 10.8812 19.3906 79.3167 0.249332 0.0162078 -3.93487e-06 -83.8318 -0.984183 12.292 -22.0843 4.81894e-07 -1.35221e-06 8.27719 -24.4708 86.5013 2.80414 0.00749797 -9.7976e-05 -69.3647 -6.42913 5.0724 -28.332 -5.51015e-06 4.89167e-06 
-7.40783 91.3341 253.071 -100.616 -84.8987 -96.6233 -0.345731 -8.40417 -4.24197 -0.0426074 6.85247 -1.32323 2.82523 7.68766 -0.206578 0.484803 -0.268631 0.095087 1.19647 4.32062 -0.737238 -0.396908 -16.4395 0.217236 -1.611 5.0879 177.459 -31.426 8.79906 -66.5541 -35.5213 1.87649e-05 -3.72952e-05 1.60191 7.27972 8.87714 -2.38855e-08 -90 -2.38856e-08 165 10 -180 -5.63764e-07 -5.30534e-06 4.21057e-06 5.11834 3.24663 0.0118969 -33.0611 9.71893 77.6905 -27.518 9.46258e-06 7.22705e-06 4.00252 -6.87399 -4.59182 6.36111e-15 90 -0 165 10 -180 -1.44926e-06 8.34252e-07 -4.23648e-06 10.4477 20.0888 79.4362 0.433471 0.00927729 -2.39574e-05 -83.8052 -0.793634 11.6327 -22.8326 5.41908e-07 2.19672e-06 7.53843 -24.4086 86.3504 2.13931 0.00840585 -4.82126e-05 -69.4946 -7.02212 4.59149 -28.2826 -2.72195e-06 1.68626e-06 
-7.38041 91.1822 254.237 -100.545 -84.888 -96.5503 -0.346636 -8.433 -4.17121 -0.0428131 6.83134 -1.31176 2.80551 7.70897 -0.204565 0.47925 -0.262069 0.0990963 1.18531 4.30503 -0.806441 -0.413483 -16.4811 0.196367 -1.61982 5.08172 177.335 -31.5582 8.72614 -66.5185 -35.4169 3.20565e-05 -5.51048e-05 1.58883 7.24939 8.84666 1.19428e-08 -90 1.19428e-08 165 10 -180 -6.00564e-07 -6.31475e-06 3.31219e-06 5.1384 3.17582 0.0303551 -33.3477 9.84874 77.8032 -26.7014 1.44843e-05 6.33023e-06 4.15095 -6.99242 -4.29402 -2.38856e-08 90 2.38856e-08 165 10 -180 -6.20896e-07 6.66945e-07 -2.00979e-06 9.91625 20.7361 79.635 0.77678 0.00271739 -2.87418e-05 -83.7564 -0.592579 10.8799 -23.6837 5.73425e-07 5.66418e-06 6.93415 -24.395 86.2795 1.93671 0.00896927 -1.13698e-05 -69.6202 -7.46195 4.18341 -28.2711 2.60686e-07 -2.0442e-06 
-7.3549 91.0361 255.418 -100.545 -84.8807 -96.5783 -0.334438 -8.45853 -4.08882 -0.041975 6.80948 -1.29786 2.79739 7.72212 -0.185376 0.47592 -0.257625 0.106036 1.16672 4.29046 -0.872414 -0.441213 -16.5138 0.177593 -1.62561 5.08879 177.249 -31.6268 8.64465 -66.5594 -35.2644 3.54419e-05 -5.9702e-05 1.58174 7.22755 8.82237 -1.19428e-08 -90 -1.19428e-08 165 10 -180 -4.15022e-07 -6.39151e-06 2.52627e-06 5.15148 3.12438 0.0228361 -33.6617 9.93883 77.9302 -25.8541 1.70363e-05 3.46686e-06 4.28012 -7.16766 -4.02931 2.9857e-09 90 -2.98569e-09 165 10 -180 1.98626e-31 4.77083e-15 -2.38542e-15 9.35637 21.2418 79.9009 1.40495 -0.00176216 -6.48179e-06 -83.7044 -0.391813 10.134 -24.6575 6.13078e-07 7.81237e-06 6.59768 -24.4467 86.3488 2.20986 0.00898258 5.14716e-06 -69.7181 -7.49447 4.00416 -28.3275 2.09228e-06 -4.5631e-06 
-7.32881 90.893 256.62 -100.743 -84.8764 -96.808 -0.30433 -8.47819 -4.01899 -0.0399487 6.7902 -1.28322 2.80096 7.72544 -0.145963 0.474623 -0.255019 0.116794 1.14044 4.2846 -0.933253 -0.484766 -16.5361 0.158557 -1.62072 5.12354 177.233 -31.6013 8.58099 -66.7171 -35.0609 2.24198e-05 -4.27565e-05 1.57406 7.21689 8.81644 -1.79142e-08 -90 -1.79142e-08 165 10 -180 2.04413e-07 -4.92392e-06 1.85238e-06 5.15454 3.11389 -0.0459588 -34.0336 9.95229 78.0883 -24.9489 1.57682e-05 -3.2766e-06 4.37331 -7.42253 -3.80612 5.97139e-09 90 -5.97139e-09 165 10 -180 3.61275e-07 -1.708e-06 2.00004e-06 8.79634 21.5903 80.1928 2.37185 -0.00331443 2.4938e-05 -83.6977 -0.188803 9.40873 -25.7318 7.58713e-07 7.93229e-06 6.6822 -24.5887 86.5951 3.14211 0.00817617 1.78085e-05 -69.9159 -6.98331 4.17708 -28.535 2.16653e-06 -5.39188e-06 
-7.28708 90.7583 257.843 -101.129 -84.8752 -97.2378 -0.257007 -8.49223 -3.95323 -0.0367468 6.77454 -1.26564 2.81171 7.71989 -0.0882999 0.474347 -0.254234 0.130651 1.10538 4.28789 -0.994641 -0.542572 -16.5507 0.137451 -1.61047 5.17962 177.269 -31.5085 8.52434 -66.9667 -34.7994 -2.07966e-06 -1.01251e-05 1.56782 7.21472 8.81778 -1.19428e-08 -90 -1.19428e-08 165 10 -180 1.16353e-06 -2.35183e-06 1.13794e-06 5.14629 3.1313 -0.164995 -34.4505 9.90493 78.2746 -23.9858 1.24687e-05 -1.37742e-05 4.44208 -7.7413 -3.61857 -1.34356e-08 90 1.34356e-08 165 10 -180 6.1847e-07 -4.16564e-06 4.20527e-06 8.19685 21.8257 80.5277 3.60362 -0.00298164 3.50107e-05 -83.7113 0.0208404 8.655 -26.9051 1.01042e-06 6.81427e-06 7.07902 -24.8038 86.9808 4.66662 0.00673168 5.1447e-05 -70.1844 -6.08901 4.59528 -28.8526 1.28462e-06 -5.46513e-06 
-7.22404 90.6487 259.076 -101.429 -84.8777 -97.6424 -0.202762 -8.5061 -3.84343 -0.032679 6.75427 -1.24301 2.83288 7.70853 -0.0177759 0.476278 -0.255909 0.146148 1.06296 4.28273 -1.0566 -0.605282 -16.5588 0.120944 -1.60808 5.22928 177.294 -31.3972 8.42306 -67.2356 -34.4914 -2.6848e-05 2.40468e-05 1.57637 7.21699 8.80731 -5.97139e-09 -90 -5.97139e-09 165 10 -180 2.057e-06 2.78358e-07 4.9836e-07 5.13451 3.13785 -0.263166 -34.8529 9.86703 78.4521 -23.0254 8.63495e-06 -2.3615e-05 4.51611 -8.08526 -3.45171 -2.9857e-09 90 2.98569e-09 165 10 -180 7.7228e-07 -6.37328e-06 5.98841e-06 7.52758 21.9452 80.9776 5.0349 -0.00188834 1.42661e-05 -83.6546 0.227878 7.87839 -28.2292 1.26548e-06 5.46786e-06 7.52847 -25.0466 87.4544 6.42158 0.00511976 0.000104067 -70.2615 -5.00013 5.06454 -29.1235 2.11099e-07 -5.16185e-06 
-7.11252 90.5886 260.292 -101.367 -84.8854 -97.7961 -0.15184 -8.52521 -3.6415 -0.0280463 6.72116 -1.21319 2.86771 7.69439 0.0602221 0.481604 -0.260685 0.161827 1.01457 4.25153 -1.11919 -0.663545 -16.5618 0.115708 -1.62665 5.24475 177.25 -31.3167 8.22611 -67.4513 -34.1484 -4.08253e-05 4.54973e-05 1.61303 7.21965 8.76596 -1.79142e-08 -90 -1.79142e-08 165 10 -180 2.47948e-06 1.92025e-06 4.90024e-08 5.12683 3.09474 -0.269371 -35.1821 9.90974 78.585 -22.1285 5.92791e-06 -2.84466e-05 4.62501 -8.4155 -3.29036 -1.9407e-08 90 1.9407e-08 165 10 -180 8.23395e-07 -7.33129e-06 6.72219e-06 6.7586 21.9439 81.6144 6.60101 -0.00115777 -2.15319e-06 -83.4376 0.420605 7.08382 -29.7568 1.38058e-06 4.89668e-06 7.76876 -25.2749 87.9608 8.0456 0.0038087 0.000132527 -69.8778 -3.89982 5.38028 -29.191 -2.8512e-07 -4.84943e-06 
-6.97467 90.5459 261.512 -100.798 -84.9048 -97.6031 -0.108727 -8.55459 -3.29046 -0.0237042 6.66787 -1.17875 2.92134 7.68258 0.132893 0.492951 -0.267966 0.176418 0.957339 4.18251 -1.18073 -0.713336 -16.5528 0.133878 -1.67141 5.18721 177.091 -31.2811 7.86912 -67.5714 -33.7902 -3.79761e-05 4.66626e-05 1.70103 7.19784 8.6681 5.97139e-09 -90 5.97139e-09 165 10 -180 2.17935e-06 2.11462e-06 -1.35134e-07 5.12629 2.95553 -0.118355 -35.4064 10.0965 78.6541 -21.3099 5.11004e-06 -2.53072e-05 4.78967 -8.71056 -3.12473 -7.95139e-15 90 -0 165 10 -180 6.58003e-07 -6.27439e-06 5.7368e-06 5.82886 21.8159 82.5175 8.31257 -0.000975567 1.03692e-05 -83.1141 0.593271 6.22971 -31.434 1.20405e-06 5.71215e-06 7.72479 -25.4988 88.5288 9.47518 0.00284872 3.68308e-05 -68.6977 -2.68076 5.51467 -28.9768 2.47959e-07 -4.83846e-06 
-6.79955 90.5567 262.721 -99.886 -84.9327 -97.1899 -0.0671757 -8.58997 -2.83063 -0.0192051 6.60051 -1.13979 2.99064 7.67011 0.206908 0.508918 -0.277662 0.190995 0.891542 4.08744 -1.24182 -0.760153 -16.5335 0.168464 -1.73512 5.08215 176.86 -31.2639 7.39643 -67.6422 -33.405 -2.53796e-05 3.62669e-05 1.82662 7.16142 8.53082 1.79142e-08 -90 1.79142e-08 165 10 -180 1.42064e-06 1.47961e-06 -1.30328e-07 5.12919 2.75294 0.136505 -35.5627 10.3752 78.6824 -20.5375 5.37331e-06 -1.71568e-05 4.98986 -8.99469 -2.96443 -3.88141e-08 90 3.8814e-08 165 10 -180 3.13732e-07 -3.90195e-06 3.53431e-06 4.77914 21.5543 83.6214 10.1951 -0.000780298 2.44159e-05 -82.7062 0.748851 5.32707 -33.2551 8.0029e-07 7.25098e-06 7.53835 -25.7365 89.1722 10.8924 0.00201008 -0.000139456 -66.9503 -1.2954 5.53467 -28.5766 1.31761e-06 -4.86608e-06 
